<svg width="64" height="64" viewBox="0 0 64 64" fill="none" xmlns="http://www.w3.org/2000/svg">
<g clip-path="url(#clip0_195_307)">
<g filter="url(#filter0_f_195_307)">
<circle cx="32" cy="32" r="13" fill="#EBD1BB"/>
</g>
<g clip-path="url(#clip1_195_307)">
<path d="M41.942 22.108C41.7509 21.7769 41.3946 21.5713 41.0123 21.5713H22.7331C22.3508 21.5713 21.9946 21.7769 21.8035 22.108L20.499 24.3674C20.3531 24.6199 20.4397 24.9429 20.6923 25.0887C20.9447 25.2345 21.2678 25.148 21.4136 24.8954L22.4182 23.1554L26.2308 29.759H18.6056L20.2176 26.9669C20.3634 26.7143 20.2769 26.3913 20.0243 26.2456C19.7717 26.0996 19.4487 26.1863 19.303 26.4388L17.3521 29.8179C17.1669 30.1385 17.2083 30.5394 17.4548 30.8156L31.2204 46.2332C31.3824 46.4147 31.6149 46.5188 31.8582 46.519H31.8587C32.1018 46.519 32.3342 46.415 32.4963 46.2339L46.2899 30.816C46.537 30.5398 46.5785 30.1387 46.3932 29.8177L41.942 22.108ZM32.9867 29.7591H28.06L31.8726 23.1554L35.6853 29.7591H35.6395C35.3478 29.7591 35.1115 29.9955 35.1115 30.2871C35.1115 30.5788 35.3479 30.8152 35.6395 30.8152H35.8937L31.8599 44.5063L27.8504 30.8152H32.9867C33.2784 30.8152 33.5148 30.5788 33.5148 30.2872C33.5149 29.9955 33.2784 29.7591 32.9867 29.7591ZM36.6 29.231L32.7873 22.6273H40.4126L36.6 29.231ZM36.9949 30.8152H44.8735L33.1261 43.9459L36.9949 30.8152ZM45.1398 29.7591H37.5146L41.3272 23.1555L45.1398 29.7591ZM23.3328 22.6273H30.9581L27.1455 29.231L23.3328 22.6273ZM26.7498 30.8152L30.5958 43.9479L18.8703 30.8152H26.7498Z" fill="#BE727C"/>
<path d="M44.6526 44.5506C44.6275 44.5339 44.601 44.5194 44.5734 44.5071C44.2381 44.3588 43.9289 44.1837 43.6544 43.9867C43.4176 43.8167 43.0876 43.8709 42.9175 44.1079C42.7475 44.3448 42.8017 44.6747 43.0386 44.8448C43.1997 44.9604 43.3699 45.0695 43.5481 45.1714C42.4077 45.8221 41.6167 46.7544 41.2294 47.907C40.842 46.7546 40.0512 45.8224 38.911 45.1716C40.0514 44.5209 40.8422 43.5886 41.2294 42.4361C41.2348 42.452 41.2403 42.4678 41.2457 42.4836C41.3416 42.759 41.6425 42.9045 41.9181 42.8087C42.1935 42.7127 42.339 42.4117 42.2431 42.1363C42.203 42.0212 42.1678 41.9015 42.1382 41.7809L41.9186 40.8841C41.8407 40.5657 41.5572 40.3433 41.2294 40.3433C40.9015 40.3433 40.6181 40.5657 40.54 40.8842L40.3206 41.7809C39.9464 43.3093 38.7897 44.107 37.8853 44.5072C37.8577 44.5194 37.8312 44.534 37.806 44.5508C37.5979 44.6895 37.4737 44.9216 37.4737 45.1717C37.4737 45.4218 37.5979 45.6539 37.806 45.7926C37.8311 45.8094 37.8576 45.8239 37.8853 45.8362C38.7897 46.2363 39.9464 47.0342 40.3206 48.5625L40.5401 49.4593C40.6181 49.7777 40.9015 50.0001 41.2294 50.0001C41.5572 50.0001 41.8407 49.7777 41.9186 49.4592L42.1382 48.5625C42.5123 47.0342 43.669 46.2364 44.5734 45.8362C44.601 45.824 44.6275 45.8094 44.6527 45.7927C44.8608 45.6541 44.985 45.4219 44.985 45.1717C44.985 44.9215 44.8607 44.6894 44.6526 44.5506Z" fill="#BE727C"/>
<path d="M47.1569 21.2883C47.1318 21.2715 47.1053 21.257 47.0776 21.2447C46.4925 20.9859 46.1293 20.5831 45.9982 20.0474L45.8876 19.5953C45.8195 19.3173 45.572 19.123 45.2858 19.123C45.2858 19.123 45.2857 19.123 45.2856 19.123C44.9994 19.1231 44.752 19.3174 44.684 19.5953L44.5733 20.0474C44.4422 20.5831 44.079 20.9859 43.4939 21.2447C43.4663 21.257 43.4397 21.2715 43.4146 21.2883C43.2367 21.4069 43.1304 21.6055 43.1305 21.8193C43.1305 22.0331 43.2368 22.2316 43.4148 22.3502C43.4399 22.3669 43.4663 22.3815 43.4939 22.3937C44.0791 22.6525 44.4422 23.0553 44.5733 23.591L44.684 24.043C44.752 24.3211 44.9995 24.5153 45.2857 24.5154H45.2859C45.5721 24.5154 45.8195 24.3212 45.8877 24.0431L45.9983 23.591C46.1295 23.0554 46.4926 22.6526 47.0777 22.3938C47.1053 22.3815 47.1318 22.367 47.1569 22.3502C47.3348 22.2317 47.4411 22.0332 47.4411 21.8194C47.4411 21.6054 47.3348 21.4069 47.1569 21.2883ZM45.2857 22.5788C45.1095 22.2889 44.8773 22.0342 44.5931 21.8192C44.8773 21.6043 45.1096 21.3496 45.2858 21.0597C45.462 21.3496 45.6942 21.6043 45.9784 21.8192C45.6942 22.0342 45.4619 22.2889 45.2857 22.5788Z" fill="#BE727C"/>
<path d="M18.6192 20.1173L18.7777 20.7649C18.8502 21.0607 19.1135 21.2674 19.418 21.2674C19.7226 21.2674 19.9859 21.0607 20.0583 20.7649L20.2168 20.1173C20.4729 19.0715 21.2693 18.5234 21.8924 18.2477C21.9201 18.2355 21.9466 18.2209 21.9717 18.2041C22.1629 18.0767 22.277 17.8635 22.277 17.6338C22.277 17.404 22.1629 17.1907 21.9717 17.0632C21.9466 17.0464 21.9201 17.0319 21.8924 17.0196C21.2693 16.744 20.4729 16.1959 20.2168 15.1501L20.0583 14.5025C19.9858 14.2066 19.7225 14 19.4179 14C19.1134 14 18.8501 14.2066 18.7777 14.5025L18.6191 15.15C18.3632 16.1959 17.5667 16.7439 16.9436 17.0196C16.916 17.0318 16.8894 17.0464 16.8643 17.0632C16.6731 17.1907 16.559 17.404 16.559 17.6338C16.559 17.8635 16.6732 18.0768 16.8644 18.2042C16.8895 18.2209 16.916 18.2355 16.9436 18.2477C17.5667 18.5233 18.3632 19.0715 18.6192 20.1173ZM19.4179 16.0576C19.709 16.6946 20.179 17.2271 20.8093 17.6337C20.1791 18.0402 19.709 18.5728 19.4179 19.2099C19.1269 18.5728 18.6568 18.0403 18.0265 17.6337C18.6568 17.2271 19.1269 16.6945 19.4179 16.0576Z" fill="#BE727C"/>
</g>
</g>
<defs>
<filter id="filter0_f_195_307" x="-7" y="-7" width="78" height="78" filterUnits="userSpaceOnUse" color-interpolation-filters="sRGB">
<feFlood flood-opacity="0" result="BackgroundImageFix"/>
<feBlend mode="normal" in="SourceGraphic" in2="BackgroundImageFix" result="shape"/>
<feGaussianBlur stdDeviation="13" result="effect1_foregroundBlur_195_307"/>
</filter>
<clipPath id="clip0_195_307">
<rect width="64" height="64" fill="white"/>
</clipPath>
<clipPath id="clip1_195_307">
<rect width="36" height="36" fill="white" transform="translate(14 14)"/>
</clipPath>
</defs>
</svg>
