<svg width="64" height="64" viewBox="0 0 64 64" fill="none" xmlns="http://www.w3.org/2000/svg">
<g clip-path="url(#clip0_195_322)">
<g filter="url(#filter0_f_195_322)">
<circle cx="32" cy="32" r="13" fill="#F5A0A5"/>
</g>
<g clip-path="url(#clip1_195_322)">
<path d="M44.8728 21.6327C44.9837 21.7435 45.129 21.799 45.2742 21.799C45.4194 21.799 45.5647 21.7435 45.6756 21.6327L46.077 21.2313L46.4784 21.6327C46.5892 21.7435 46.7346 21.799 46.8798 21.799C47.025 21.799 47.1703 21.7435 47.2812 21.6327C47.5029 21.411 47.5029 21.0516 47.2812 20.8299L46.8798 20.4285L47.2812 20.0271C47.5029 19.8054 47.5029 19.446 47.2812 19.2243C47.0595 19.0026 46.7001 19.0026 46.4784 19.2243L46.077 19.6257L45.6756 19.2243C45.4539 19.0026 45.0945 19.0026 44.8728 19.2243C44.6511 19.446 44.6511 19.8054 44.8728 20.0271L45.2742 20.4285L44.8728 20.8299C44.651 21.0517 44.651 21.411 44.8728 21.6327Z" fill="#891B67"/>
<path d="M49.0929 34.8585C48.9593 34.6724 48.7281 34.5863 48.5041 34.6365L45.1983 35.3994L45.7853 31.8767C45.8258 31.633 45.7047 31.3913 45.4851 31.2785C45.2647 31.1648 44.998 31.2072 44.824 31.3819L39.4888 36.7172L39.2685 36.768L38.1958 34.622H38.4125C38.6219 34.622 38.8142 34.5068 38.9131 34.3221C39.0118 34.1375 39.001 33.9135 38.8849 33.7395L36.6139 30.333C36.451 30.0882 36.1282 30.0096 35.8696 30.1495L29.6244 33.556C29.3966 33.6802 29.2821 33.9433 29.3464 34.1947C29.4104 34.446 29.6369 34.6222 29.8964 34.6222H33.3028V39.1641H30.8038C30.3067 38.3383 28.7524 36.4005 25.2741 36.899C23.5035 37.1518 22.5861 37.5188 21.777 37.8426C21.027 38.1425 20.3634 38.4045 19.0949 38.5253C19.0586 38.2469 18.83 38.0285 18.5415 38.0285H14.5673C14.2538 38.0285 13.9996 38.2827 13.9996 38.5962C13.9996 38.9098 14.2538 39.164 14.5673 39.164H17.9738V45.9769H14.5673C14.2538 45.9769 13.9996 46.2311 13.9996 46.5446C13.9996 46.8582 14.2538 47.1124 14.5673 47.1124H18.5415C18.8551 47.1124 19.1093 46.8582 19.1093 46.5446V46.1009L23.6712 44.8566L32.0559 46.5334C32.0928 46.5409 32.1299 46.5445 32.1673 46.5445C32.197 46.5445 32.2267 46.5422 32.2558 46.5375L42.268 44.9568C42.9949 44.8417 43.5222 44.2241 43.5222 43.4886C43.5222 43.3673 43.5034 43.2509 43.4759 43.1379H44.0899C44.2871 43.1379 44.47 43.0356 44.5734 42.8676L49.1153 35.487C49.2354 35.2924 49.2266 35.0446 49.0929 34.8585ZM44.3741 33.4375L44.0012 35.6756L41.5762 36.2353L44.3741 33.4375ZM35.9572 31.395L37.3515 33.4866H32.1229L35.9572 31.395ZM36.9262 34.622L38.2893 37.3488L35.7736 39.8644C35.4023 39.5353 34.9469 39.3028 34.4383 39.2125V34.6219L36.9262 34.622ZM42.3867 43.4889C42.3867 43.6625 42.2622 43.8083 42.0909 43.8354L32.179 45.4002L23.7626 43.717C23.6753 43.6987 23.5863 43.7028 23.5018 43.7258L19.1093 44.9239V39.6626C20.5979 39.531 21.3818 39.2233 22.1986 38.8967C22.9854 38.5818 23.799 38.2566 25.4349 38.0227C28.8932 37.5289 29.8972 39.8471 29.937 39.9426C30.0231 40.1581 30.2322 40.2995 30.4643 40.2995H33.9577C34.8489 40.2995 35.5739 41.0243 35.5739 41.9157V42.0027H30.0058L27.2689 40.9077C26.9762 40.7913 26.647 40.9329 26.5307 41.224C26.4143 41.5154 26.5559 41.8456 26.847 41.9622L29.6857 43.0977C29.7529 43.1244 29.8244 43.1382 29.8967 43.1382H42.0363C42.2296 43.1382 42.3867 43.2953 42.3867 43.4889ZM43.7728 42.0027H36.7093V41.9157C36.7093 41.5116 36.6166 41.1305 36.4595 40.7845L39.323 37.9209L47.437 36.0484L43.7728 42.0027Z" fill="#891B67"/>
<path d="M20.8971 29.2421C21.0006 29.4102 21.1835 29.5124 21.3805 29.5124H31.5999C31.9134 29.5124 32.1676 29.2582 32.1676 28.9446V20.9962H35.5741C35.8335 20.9962 36.0601 20.8202 36.1241 20.5687C36.1884 20.3174 36.0738 20.0542 35.846 19.93L29.6009 16.5236C29.3426 16.3836 29.0195 16.4623 28.8566 16.7071L26.5856 20.1135C26.4695 20.2877 26.4586 20.5117 26.5574 20.6962C26.6563 20.8808 26.8487 20.9961 27.058 20.9961H27.2748L26.2019 23.142L25.9817 23.0912L20.6464 17.7561C20.4723 17.5817 20.2055 17.54 19.9853 17.6527C19.7657 17.7655 19.6444 18.0075 19.6851 18.2509L20.2723 21.7736L16.9663 21.0107C16.7427 20.9589 16.5112 21.0468 16.3776 21.2327C16.244 21.4186 16.2351 21.6666 16.3552 21.8615L20.8971 29.2421ZM29.5133 17.7692L33.3475 19.8608H28.1189L29.5133 17.7692ZM31.0322 20.9962V27.5741L27.1812 23.723L28.5444 20.9962H31.0322ZM21.0964 19.8116L23.8942 22.6095L21.4694 22.0498L21.0964 19.8116ZM26.1476 24.2951L30.2294 28.3769H21.6976L18.0334 22.4226L26.1476 24.2951Z" fill="#891B67"/>
<path d="M40.6836 24.7617C41.0386 24.7617 41.3266 24.4738 41.3266 24.1188C41.3266 23.7637 41.0387 23.4759 40.6836 23.4759C40.3285 23.4759 40.0406 23.7637 40.0406 24.1188C40.0408 24.474 40.3286 24.7617 40.6836 24.7617Z" fill="#891B67"/>
<path d="M19.7606 31.2868C18.795 31.2868 18.0094 32.0725 18.0094 33.038C18.0094 34.0039 18.795 34.7895 19.7606 34.7895C20.7262 34.7895 21.5118 34.0039 21.5118 33.038C21.5118 32.0725 20.7262 31.2868 19.7606 31.2868ZM19.7606 33.654C19.421 33.654 19.1449 33.3777 19.1449 33.038C19.1449 32.6984 19.421 32.4223 19.7606 32.4223C20.1003 32.4223 20.3763 32.6984 20.3763 33.038C20.3763 33.3777 20.1001 33.654 19.7606 33.654Z" fill="#891B67"/>
<path d="M44.8728 21.6327C44.9837 21.7435 45.129 21.799 45.2742 21.799C45.4194 21.799 45.5647 21.7435 45.6756 21.6327L46.077 21.2313L46.4784 21.6327C46.5892 21.7435 46.7346 21.799 46.8798 21.799C47.025 21.799 47.1703 21.7435 47.2812 21.6327C47.5029 21.411 47.5029 21.0516 47.2812 20.8299L46.8798 20.4285L47.2812 20.0271C47.5029 19.8054 47.5029 19.446 47.2812 19.2243C47.0595 19.0026 46.7001 19.0026 46.4784 19.2243L46.077 19.6257L45.6756 19.2243C45.4539 19.0026 45.0945 19.0026 44.8728 19.2243C44.6511 19.446 44.6511 19.8054 44.8728 20.0271L45.2742 20.4285L44.8728 20.8299C44.651 21.0517 44.651 21.411 44.8728 21.6327Z" fill="#891B67"/>
<path d="M49.0929 34.8585C48.9593 34.6724 48.7281 34.5863 48.5041 34.6365L45.1983 35.3994L45.7853 31.8767C45.8258 31.633 45.7047 31.3913 45.4851 31.2785C45.2647 31.1648 44.998 31.2072 44.824 31.3819L39.4888 36.7172L39.2685 36.768L38.1958 34.622H38.4125C38.6219 34.622 38.8142 34.5068 38.9131 34.3221C39.0118 34.1375 39.001 33.9135 38.8849 33.7395L36.6139 30.333C36.451 30.0882 36.1282 30.0096 35.8696 30.1495L29.6244 33.556C29.3966 33.6802 29.2821 33.9433 29.3464 34.1947C29.4104 34.446 29.6369 34.6222 29.8964 34.6222H33.3028V39.1641H30.8038C30.3067 38.3383 28.7524 36.4005 25.2741 36.899C23.5035 37.1518 22.5861 37.5188 21.777 37.8426C21.027 38.1425 20.3634 38.4045 19.0949 38.5253C19.0586 38.2469 18.83 38.0285 18.5415 38.0285H14.5673C14.2538 38.0285 13.9996 38.2827 13.9996 38.5962C13.9996 38.9098 14.2538 39.164 14.5673 39.164H17.9738V45.9769H14.5673C14.2538 45.9769 13.9996 46.2311 13.9996 46.5446C13.9996 46.8582 14.2538 47.1124 14.5673 47.1124H18.5415C18.8551 47.1124 19.1093 46.8582 19.1093 46.5446V46.1009L23.6712 44.8566L32.0559 46.5334C32.0928 46.5409 32.1299 46.5445 32.1673 46.5445C32.197 46.5445 32.2267 46.5422 32.2558 46.5375L42.268 44.9568C42.9949 44.8417 43.5222 44.2241 43.5222 43.4886C43.5222 43.3673 43.5034 43.2509 43.4759 43.1379H44.0899C44.2871 43.1379 44.47 43.0356 44.5734 42.8676L49.1153 35.487C49.2354 35.2924 49.2266 35.0446 49.0929 34.8585ZM44.3741 33.4375L44.0012 35.6756L41.5762 36.2353L44.3741 33.4375ZM35.9572 31.395L37.3515 33.4866H32.1229L35.9572 31.395ZM36.9262 34.622L38.2893 37.3488L35.7736 39.8644C35.4023 39.5353 34.9469 39.3028 34.4383 39.2125V34.6219L36.9262 34.622ZM42.3867 43.4889C42.3867 43.6625 42.2622 43.8083 42.0909 43.8354L32.179 45.4002L23.7626 43.717C23.6753 43.6987 23.5863 43.7028 23.5018 43.7258L19.1093 44.9239V39.6626C20.5979 39.531 21.3818 39.2233 22.1986 38.8967C22.9854 38.5818 23.799 38.2566 25.4349 38.0227C28.8932 37.5289 29.8972 39.8471 29.937 39.9426C30.0231 40.1581 30.2322 40.2995 30.4643 40.2995H33.9577C34.8489 40.2995 35.5739 41.0243 35.5739 41.9157V42.0027H30.0058L27.2689 40.9077C26.9762 40.7913 26.647 40.9329 26.5307 41.224C26.4143 41.5154 26.5559 41.8456 26.847 41.9622L29.6857 43.0977C29.7529 43.1244 29.8244 43.1382 29.8967 43.1382H42.0363C42.2296 43.1382 42.3867 43.2953 42.3867 43.4889ZM43.7728 42.0027H36.7093V41.9157C36.7093 41.5116 36.6166 41.1305 36.4595 40.7845L39.323 37.9209L47.437 36.0484L43.7728 42.0027Z" fill="#891B67"/>
<path d="M20.8971 29.2421C21.0006 29.4102 21.1835 29.5124 21.3805 29.5124H31.5999C31.9134 29.5124 32.1676 29.2582 32.1676 28.9446V20.9962H35.5741C35.8335 20.9962 36.0601 20.8202 36.1241 20.5687C36.1884 20.3174 36.0738 20.0542 35.846 19.93L29.6009 16.5236C29.3426 16.3836 29.0195 16.4623 28.8566 16.7071L26.5856 20.1135C26.4695 20.2877 26.4586 20.5117 26.5574 20.6962C26.6563 20.8808 26.8487 20.9961 27.058 20.9961H27.2748L26.2019 23.142L25.9817 23.0912L20.6464 17.7561C20.4723 17.5817 20.2055 17.54 19.9853 17.6527C19.7657 17.7655 19.6444 18.0075 19.6851 18.2509L20.2723 21.7736L16.9663 21.0107C16.7427 20.9589 16.5112 21.0468 16.3776 21.2327C16.244 21.4186 16.2351 21.6666 16.3552 21.8615L20.8971 29.2421ZM29.5133 17.7692L33.3475 19.8608H28.1189L29.5133 17.7692ZM31.0322 20.9962V27.5741L27.1812 23.723L28.5444 20.9962H31.0322ZM21.0964 19.8116L23.8942 22.6095L21.4694 22.0498L21.0964 19.8116ZM26.1476 24.2951L30.2294 28.3769H21.6976L18.0334 22.4226L26.1476 24.2951Z" fill="#891B67"/>
<path d="M40.6836 24.7617C41.0386 24.7617 41.3266 24.4738 41.3266 24.1188C41.3266 23.7637 41.0387 23.4759 40.6836 23.4759C40.3285 23.4759 40.0406 23.7637 40.0406 24.1188C40.0408 24.474 40.3286 24.7617 40.6836 24.7617Z" fill="#891B67"/>
<path d="M19.7606 31.2868C18.795 31.2868 18.0094 32.0725 18.0094 33.038C18.0094 34.0039 18.795 34.7895 19.7606 34.7895C20.7262 34.7895 21.5118 34.0039 21.5118 33.038C21.5118 32.0725 20.7262 31.2868 19.7606 31.2868ZM19.7606 33.654C19.421 33.654 19.1449 33.3777 19.1449 33.038C19.1449 32.6984 19.421 32.4223 19.7606 32.4223C20.1003 32.4223 20.3763 32.6984 20.3763 33.038C20.3763 33.3777 20.1001 33.654 19.7606 33.654Z" fill="#891B67"/>
</g>
</g>
<defs>
<filter id="filter0_f_195_322" x="-7" y="-7" width="78" height="78" filterUnits="userSpaceOnUse" color-interpolation-filters="sRGB">
<feFlood flood-opacity="0" result="BackgroundImageFix"/>
<feBlend mode="normal" in="SourceGraphic" in2="BackgroundImageFix" result="shape"/>
<feGaussianBlur stdDeviation="13" result="effect1_foregroundBlur_195_322"/>
</filter>
<clipPath id="clip0_195_322">
<rect width="64" height="64" fill="white"/>
</clipPath>
<clipPath id="clip1_195_322">
<rect width="36" height="36" fill="white" transform="translate(14 14)"/>
</clipPath>
</defs>
</svg>
