<svg width="64" height="64" viewBox="0 0 64 64" fill="none" xmlns="http://www.w3.org/2000/svg">
<g clip-path="url(#clip0_195_344)">
<g filter="url(#filter0_f_195_344)">
<circle cx="32" cy="32" r="13" fill="#66A0BC"/>
</g>
<g clip-path="url(#clip1_195_344)">
<path d="M28.1315 41.8463C26.7503 41.8463 25.6266 42.9699 25.6266 44.3512C25.6266 45.7325 26.7503 46.8561 28.1315 46.8561C29.5128 46.8561 30.6364 45.7325 30.6364 44.3512C30.6364 42.97 29.5128 41.8463 28.1315 41.8463ZM28.1315 45.4499C27.5257 45.4499 27.0328 44.957 27.0328 44.3512C27.0328 43.7454 27.5257 43.2525 28.1315 43.2525C28.7373 43.2525 29.2302 43.7454 29.2302 44.3512C29.2302 44.957 28.7374 45.4499 28.1315 45.4499ZM46.5533 32C46.5533 27.5829 43.1425 23.948 38.8164 23.5895V17.2129C38.8164 15.4413 37.3751 14 35.6035 14H20.6596C18.888 14 17.4467 15.4413 17.4467 17.2129V46.7871C17.4467 48.5587 18.888 50 20.6596 50H35.6035C37.3751 50 38.8164 48.5587 38.8164 46.7871V40.4106C43.1425 40.052 46.5533 36.4171 46.5533 32ZM32.865 15.4062L32.2276 17.3679H24.0356L23.3981 15.4062H32.865ZM35.6035 48.5938H20.6596C19.6634 48.5938 18.853 47.7833 18.853 46.7871V17.2129C18.853 16.2167 19.6634 15.4062 20.6596 15.4062H21.9195L22.8559 18.2883C22.9501 18.578 23.2201 18.7741 23.5247 18.7741H32.7384C33.043 18.7741 33.313 18.578 33.4072 18.2883L34.3436 15.4062H35.6035C36.5997 15.4062 37.4101 16.2167 37.4101 17.2129V23.5894C33.084 23.948 29.6732 27.5829 29.6732 32C29.6732 36.4171 33.084 40.052 37.4101 40.4105V46.7871C37.4101 47.7833 36.5997 48.5938 35.6035 48.5938ZM38.1132 39.0338C34.2348 39.0338 31.0795 35.8784 31.0795 32C31.0795 28.1216 34.2348 24.9662 38.1132 24.9662C41.9917 24.9662 45.147 28.1216 45.147 32C45.147 35.8784 41.9917 39.0338 38.1132 39.0338ZM41.5825 29.5252L39.1077 32L41.5825 34.4748C41.857 34.7494 41.857 35.1946 41.5825 35.4692C41.3078 35.7437 40.8627 35.7437 40.588 35.4692L38.1132 32.9944L35.6384 35.4693C35.5011 35.6065 35.3211 35.6752 35.1412 35.6752C34.9613 35.6752 34.7813 35.6065 34.644 35.4693C34.3695 35.1947 34.3695 34.7495 34.644 34.4749L37.1189 32L34.644 29.5251C34.3695 29.2506 34.3695 28.8054 34.644 28.5307C34.9187 28.2562 35.3637 28.2562 35.6385 28.5307L38.1133 31.0056L40.5881 28.5308C40.8627 28.2563 41.3078 28.2563 41.5825 28.5308C41.857 28.8054 41.857 29.2506 41.5825 29.5252Z" fill="#0072B3"/>
</g>
</g>
<defs>
<filter id="filter0_f_195_344" x="-7" y="-7" width="78" height="78" filterUnits="userSpaceOnUse" color-interpolation-filters="sRGB">
<feFlood flood-opacity="0" result="BackgroundImageFix"/>
<feBlend mode="normal" in="SourceGraphic" in2="BackgroundImageFix" result="shape"/>
<feGaussianBlur stdDeviation="13" result="effect1_foregroundBlur_195_344"/>
</filter>
<clipPath id="clip0_195_344">
<rect width="64" height="64" fill="white"/>
</clipPath>
<clipPath id="clip1_195_344">
<rect width="36" height="36" fill="white" transform="translate(14 14)"/>
</clipPath>
</defs>
</svg>
