<svg width="64" height="64" viewBox="0 0 64 64" fill="none" xmlns="http://www.w3.org/2000/svg">
<g clip-path="url(#clip0_195_355)">
<g filter="url(#filter0_f_195_355)">
<circle cx="32" cy="32" r="13" fill="#6EB693"/>
</g>
<g clip-path="url(#clip1_195_355)">
<path d="M49.2375 37.0655C48.992 36.3424 48.4066 35.8175 47.5891 35.5876C46.7829 35.361 45.7545 35.4103 44.5293 35.7321C42.6346 35.1548 40.1413 34.8227 37.4442 34.7866L37.4442 30.9763C39.5338 31.2956 41.6664 30.8978 43.5097 29.8335C45.714 28.5608 47.2699 26.4997 47.8907 24.0297C47.9555 23.7719 47.8039 23.5091 47.5481 23.4364C45.2407 22.7796 42.4079 23.13 40.3314 24.329C38.9887 25.1042 38.0879 26.0793 37.444 27.043L37.444 24.7235C37.4631 24.6951 37.4824 24.6664 37.5025 24.6366C38.2123 23.5849 39.4003 21.8248 39.5311 20.0925C39.6639 18.3353 38.7651 16.1969 37.2948 14.7715C37.1038 14.5865 36.8005 14.5865 36.6096 14.7715C35.1898 16.1482 34.2701 18.3329 34.3731 20.0844C34.4654 21.6544 35.3848 23.0643 36.1958 24.3083C36.2863 24.447 36.374 24.5822 36.4596 24.7156L36.4596 27.0279C35.8149 26.0525 34.9294 25.0978 33.5981 24.3291C31.5215 23.1303 28.6886 22.7801 26.3813 23.4369C26.1255 23.5097 25.9739 23.7725 26.0387 24.0303C26.6597 26.5002 28.2157 28.5612 30.42 29.8339C31.8498 30.6593 33.4535 31.084 35.0764 31.084C35.5371 31.084 35.9995 31.0494 36.4597 30.9804L36.4598 34.787C34.9069 34.8085 33.3821 34.9313 32.0148 35.1457L31.8573 35.1037C28.6152 32.8357 26.8789 33.4894 24.3261 34.7401C22.9175 35.4301 21.4863 36.1097 20.0273 36.7989L19.9127 36.5384C19.5767 35.7745 18.6817 35.4257 17.9174 35.761L15.5413 36.8033C15.1688 36.9667 14.883 37.2638 14.7364 37.64C14.5899 38.0161 14.5994 38.4283 14.7631 38.8007L19.0131 48.4623C19.2623 49.0291 19.8192 49.3672 20.4022 49.3672C20.605 49.3672 20.8111 49.3262 21.0084 49.2397L23.3845 48.1974C23.757 48.034 24.0429 47.7369 24.1894 47.3607C24.3359 46.9846 24.3265 46.5724 24.1627 46.2001L23.7479 45.2572L25.8684 44.2243C26.4367 43.9475 27.0081 43.8982 27.6154 44.0742L32.6008 45.5177C32.9676 45.624 33.3464 45.6694 33.7308 45.6694C35.0582 45.6693 36.4492 45.1269 37.6183 44.6709C37.7212 44.6308 47.2729 40.9415 47.2729 40.9415C48.7909 40.3553 49.7273 38.5079 49.2375 37.0655ZM40.8237 25.1815C42.5121 24.2066 44.8531 23.8584 46.8018 24.2659C46.1752 26.2635 44.8457 27.9256 43.0176 28.9811C41.3763 29.9287 39.4784 30.2859 37.6178 30.0073L41.8309 27.5747C42.0663 27.4388 42.1469 27.1378 42.011 26.9023C41.8751 26.6669 41.5741 26.5863 41.3387 26.7222L37.5095 28.9331C38.1237 27.6427 39.0181 26.224 40.8237 25.1815ZM35.3559 20.0267C35.2768 18.683 35.921 17.0254 36.9535 15.8392C38.02 17.0501 38.6511 18.6749 38.5496 20.0185C38.4767 20.9832 37.9623 22.0405 37.444 22.9103L37.4439 19.8488C37.4439 19.577 37.2235 19.3566 36.9517 19.3566C36.6799 19.3566 36.4595 19.577 36.4595 19.8488L36.4596 22.8919C35.9039 21.9841 35.4137 21.0098 35.3559 20.0267ZM30.9123 28.9815C29.0841 27.926 27.7544 26.264 27.1278 24.2664C29.0765 23.8588 31.4174 24.2069 33.1059 25.1817C34.883 26.2076 35.7524 27.5791 36.3946 28.9332L32.5653 26.7224C32.3298 26.5864 32.0288 26.6671 31.8929 26.9026C31.757 27.138 31.8377 27.439 32.0731 27.5749L36.2918 30.0105C34.4376 30.2836 32.5475 29.9255 30.9123 28.9815ZM36.952 35.7676C38.9962 35.7676 40.9829 35.9499 42.6465 36.2802L37.9603 37.6588C37.9348 37.6074 37.9075 37.5565 37.8786 37.5064C37.5283 36.9007 36.9652 36.4683 36.2931 36.2887L34.6362 35.846C35.3924 35.7944 36.17 35.7676 36.952 35.7676ZM23.2723 47.0034C23.2213 47.1344 23.1207 47.2383 22.9893 47.296L20.6131 48.3383C20.3456 48.4557 20.032 48.3337 19.9143 48.0661L15.6643 38.4044C15.6065 38.2729 15.6028 38.1284 15.6538 37.9974C15.7048 37.8665 15.8053 37.7625 15.9368 37.7048L18.313 36.6625C18.3821 36.6322 18.4542 36.6178 18.5253 36.6178C18.7294 36.6178 18.9246 36.7363 19.0118 36.9347L23.2618 46.5964C23.3196 46.7279 23.3234 46.8725 23.2723 47.0034ZM46.9183 40.0233C46.9183 40.0233 37.3646 43.7134 37.2606 43.7539C35.8915 44.2879 34.1876 44.9523 32.8747 44.5723L27.8893 43.1288C27.0488 42.8854 26.2238 42.9563 25.4373 43.3395L23.3514 44.3556L20.4239 37.7004C21.8946 37.0058 23.3373 36.3208 24.7592 35.6242C27.1399 34.4578 28.5149 33.943 31.3613 35.9584C31.409 35.9921 31.4623 36.0171 31.5187 36.0322L36.039 37.2398C36.457 37.3516 36.8077 37.6213 37.0264 37.9993C37.245 38.3773 37.3039 38.8158 37.1922 39.2339C37.0806 39.652 36.8108 40.0026 36.4327 40.2212C36.0547 40.4399 35.6162 40.4987 35.1981 40.3871L29.1907 38.7822C28.9283 38.712 28.6583 38.8681 28.5882 39.1307C28.5181 39.3933 28.6741 39.6631 28.9367 39.7332L34.9441 41.3381C35.6162 41.5177 36.3199 41.4236 36.9255 41.0733C37.5312 40.723 37.9637 40.16 38.1432 39.4879C38.221 39.1968 38.2474 38.8998 38.2239 38.6073L44.4741 36.7687C46.5368 36.1619 47.9689 36.3913 48.3053 37.3821C48.6244 38.3214 47.9373 39.6297 46.9183 40.0233Z" fill="#2B6671"/>
</g>
</g>
<defs>
<filter id="filter0_f_195_355" x="-7" y="-7" width="78" height="78" filterUnits="userSpaceOnUse" color-interpolation-filters="sRGB">
<feFlood flood-opacity="0" result="BackgroundImageFix"/>
<feBlend mode="normal" in="SourceGraphic" in2="BackgroundImageFix" result="shape"/>
<feGaussianBlur stdDeviation="13" result="effect1_foregroundBlur_195_355"/>
</filter>
<clipPath id="clip0_195_355">
<rect width="64" height="64" fill="white"/>
</clipPath>
<clipPath id="clip1_195_355">
<rect width="36" height="36" fill="white" transform="translate(14 14)"/>
</clipPath>
</defs>
</svg>
